<svg id="Layer_3" enable-background="new 0 0 512 512" height="512" viewBox="0 0 512 512" width="512" xmlns="http://www.w3.org/2000/svg"><g><path d="m383.5 373.4s-7.5 74.6 40.5 90.6v48h80v-216l-56-112z" fill="#f4a56e"/><path d="m87.5 512v-48c48-16 40.7-89.1 40.7-89.1l-64.2-190.9-56.5 112v216z" fill="#f4a56e"/><path d="m424 104 24-8v278.9l-34.7.6s-66.2-14.8-121.6 29.4c-2.4 1.9-3.7 4.8-3.7 7.8v11.3h-48v-10.2c0-3.7-2-7.1-5.2-8.8-16.8-9.1-70.1-35.9-136.6-29.2l-34.2-.9v-278.9l24 8 176 68.9z" fill="#087182"/><path d="m88 229.7v-149.7c20.4-.7 64.2.4 96 8 28.1 6.7 55 17.5 80 32v264c-25-14.5-51.9-25.3-80-32-31.8-7.6-75.6-8.7-96-8v-54.9" fill="#90e3f5"/><path d="m424 289.6v54.4c-21.2-3.2-42.8-3.2-64 0-34.8 5.4-67.7 19.1-96 40v-264c28.3-20.9 61.2-34.6 96-40 21.2-3.2 42.8-3.2 64 0v150.1" fill="#77d8e8"/><circle cx="180" cy="436" fill="#f69038" r="20"/><circle cx="52" cy="44" fill="#90e3f5" r="20"/><path d="m278.1 33.9 25.9 14.1-25.9 14.1-14.1 25.9-14.1-25.9-25.9-14.1 25.9-14.1 14.1-25.9z" fill="#f69038"/><path d="m358.1 449.9 25.9 14.1-25.9 14.1-14.1 25.9-14.1-25.9-25.9-14.1 25.9-14.1 14.1-25.9z" fill="#90e3f5"/><path d="m120.1 109.6c20.4-.7 64.2.4 96 8 16.4 3.9 32.4 9.2 47.9 15.9v-13.5c-25-14.5-51.9-25.3-80-32-31.8-7.6-75.6-8.7-96-8v264c7.9-.3 19.3-.3 32.1.3z" fill="#fafcfc" opacity=".3"/><path d="m396.4 208s-25.8 45.1-1.8 69.1l61.4 61.9 10.7-43z" fill="#232626" opacity=".2"/><path d="m116 208s25.8 45.1 1.8 69.1l-61.4 61.9-10.7-43z" fill="#232626" opacity=".2"/><path d="m504 512v-216l-106.8-88c-9.2 21.2-6.1 45.7 8 64l42.8 40v24s-48 0-32 80l8 48v48s82-2 80 0z" fill="#ffbe92"/><path d="m7.5 512v-216l106.8-88c9.2 21.2 6.1 45.7-8 64l-42.8 40v24s48 0 32 80l-8 48v48z" fill="#ffbe92"/><g><path d="m120 32h16v16h-16z"/><path d="m376 168h16v16h-16z"/><path d="m424 32h16v16h-16z"/><path d="m0 189.7h16v16h-16z"/><path d="m232 464h16v16h-16z"/><path d="m180 408c-15.4 0-28 12.6-28 28s12.6 28 28 28 28-12.6 28-28-12.6-28-28-28zm0 40c-6.6 0-12-5.4-12-12s5.4-12 12-12 12 5.4 12 12-5.4 12-12 12z"/><path d="m52 72c15.4 0 28-12.6 28-28s-12.6-28-28-28-28 12.6-28 28 12.6 28 28 28zm0-40c6.6 0 12 5.4 12 12s-5.4 12-12 12-12-5.4-12-12 5.4-12 12-12z"/><path d="m220.2 55 23.8 13 13 23.8c1.4 2.6 4.1 4.2 7 4.2s5.6-1.6 7-4.2l13-23.8 23.8-13c2.6-1.4 4.2-4.1 4.2-7s-1.6-5.6-4.2-7l-23.8-13-13-23.8c-1.4-2.6-4.1-4.2-7-4.2s-5.6 1.6-7 4.2l-13 23.8-23.8 13c-2.6 1.4-4.2 4.1-4.2 7s1.6 5.6 4.2 7zm33.5-14.1c1.3-.7 2.4-1.8 3.2-3.2l7.1-13 7.1 13c.7 1.3 1.8 2.4 3.2 3.2l13 7.1-13 7.1c-1.3.7-2.4 1.8-3.2 3.2l-7.1 13-7.1-13c-.7-1.3-1.8-2.4-3.2-3.2l-13-7.1z"/><path d="m387.8 457-23.8-13-13-23.8c-1.4-2.6-4.1-4.2-7-4.2s-5.6 1.6-7 4.2l-13 23.8-23.8 13c-2.6 1.4-4.2 4.1-4.2 7s1.6 5.6 4.2 7l23.8 13 13 23.8c1.4 2.6 4.1 4.2 7 4.2s5.6-1.6 7-4.2l13-23.8 23.8-13c2.6-1.4 4.2-4.1 4.2-7s-1.6-5.6-4.2-7zm-33.5 14.1c-1.3.7-2.4 1.8-3.2 3.2l-7.1 13-7.1-13c-.7-1.3-1.8-2.4-3.2-3.2l-13-7.1 13-7.1c1.3-.7 2.4-1.8 3.2-3.2l7.1-13 7.1 13c.7 1.3 1.8 2.4 3.2 3.2l13 7.1z"/><path d="m511.1 292.4-55.1-110.3v-86.1c0-2.6-1.2-5-3.3-6.5s-4.8-1.9-7.2-1.1l-13.5 4.5v-12.9c0-4-2.9-7.3-6.8-7.9-22.1-3.3-44.5-3.3-66.4 0-33.8 5.1-66.6 18.4-95.3 38.4-24.4-13.6-50.5-23.8-77.7-30.3-33.7-8.1-78.9-8.9-98.1-8.2-4.3.2-7.7 3.7-7.7 8v12.9l-13.5-4.5c-2.4-.8-5.1-.4-7.2 1.1-2.1 1.5-3.3 3.9-3.3 6.5v86.1l-55.6 110.3c-.6 1.1-.9 2.3-.9 3.6v216h16v-212.2l94.8-78.2c2.2 10.4 2.7 27.6-10 45l-42.3 39.6c-1.6 1.5-2.5 3.6-2.5 5.8v24c0 4.4 3.6 8 8 8 .1 0 10.5.3 18.2 9.7 9.5 11.6 11.6 32.6 6 60.7l15.7 3.1c2.5-12.7 3.7-24.2 3.4-34.4 4.7-.3 9.3-.4 13.9-.4.3 17.5-2.4 62.6-35.6 73.7-3.3 1.1-5.5 4.1-5.5 7.6v48h16v-42.5c19.5-8.7 32.6-27.4 38.2-54.4 2.6-12.4 3-23.9 2.9-31.6 41.7 3.4 75.6 18.4 94.3 28.6.7.4 1.1 1 1.1 1.8v10.1c0 4.4 3.6 8 8 8h48c4.4 0 8-3.6 8-8v-11.3c0-.6.3-1.2.7-1.6 26.5-21.1 55.9-27.9 78.3-29.5-.4 20.7 2.8 70.9 40.9 87.9v42.5h16v-48c0-3.4-2.2-6.5-5.5-7.6-33.3-11.1-35.8-57.4-35.4-75.2 5.6.2 10.2.6 13.7 1-.4 10.4.7 22.2 3.3 35.3l15.7-3.1c-5.6-27.9-3.6-48.8 5.8-60.5 7.7-9.6 18-9.9 18.4-10 4.4 0 8-3.6 8-8v-24c0-2.2-.9-4.3-2.5-5.8l-42.2-39.5c-12.8-17.4-12.2-34.6-10-45l94.8 78.2v212.2h16v-216c-.1-1.3-.4-2.5-1-3.6zm-31.1-26.6-24-19.8v-28.2zm-40-158.7v125.8l-8-6.6v-116.5zm-360 2.7v116.1l-8 6.6v-125.4zm-24 135.9-24.2 20 24.2-48zm55.7 32.1c.3-.3.7-.7.9-1 26.7-35.5 9.5-70.9 8.8-72.4-1.1-2.2-3.1-3.7-5.5-4.2s-4.9.1-6.7 1.7l-13.2 10.8v-124.9c21.1-.2 58 1.2 86.1 8 25.8 6.2 50.7 15.9 73.9 28.9v245.8c-22.2-11.6-45.7-20.4-70.1-26.2-29.5-7.1-67.9-8.6-89.9-8.4v-43.3zm-40.2 37.7 8.5-7.9v24.8c-3.1-1.5-6-2.5-8.5-3.2zm215.3 83.1c-4.3 3.4-6.8 8.6-6.8 14.1v3.3h-32v-2.2c0-6.6-3.6-12.7-9.4-15.8-24.7-13.4-74-34.6-133.7-30.7-1.2-5.7-3-10.8-5.4-15.4 21.5 0 56 1.6 82.6 8 27.3 6.5 53.5 17 77.9 31.1 1.2.7 2.6 1.1 4 1.1s2.8-.4 4-1.1c.3-.1.5-.3.7-.5 27.6-20.2 59.5-33.5 92.5-38.5 17-2.6 34.2-3 51.4-1.3-2.6 4.6-4.5 9.9-5.8 15.7-20.2-2.7-73.4-5-120 32.2zm153.2-69.4c-2.4.6-5.1 1.5-8 2.9v-24.1l8 7.5zm-44.4-129c-2.4.5-4.4 2.1-5.5 4.2-.7 1.5-17.9 36.8 8.8 72.4.3.4.6.7.9 1l16.2 15.2v41.9c-19.1-2.1-38.3-1.7-57.2 1.2-30.5 4.6-60.2 15.9-86.8 32.8v-244.8c26.8-18.9 57.6-31.4 89.2-36.2 18.1-2.7 36.5-3 54.8-.9v126.1l-13.7-11.3c-1.9-1.5-4.4-2.1-6.7-1.6z"/><path d="m228 174.9 7.9-13.9c-57.7-33-114.7-25.3-117.1-25l2.3 15.8c.6 0 53.9-7.1 106.9 23.1z"/><path d="m228 214.9 7.9-13.9c-57.7-33-114.7-25.3-117.1-25l2.3 15.8c.6 0 53.9-7.1 106.9 23.1z"/><path d="m284 321.1 7.9 13.9c52.8-30.2 106.4-23.1 106.9-23l2.3-15.8c-2.4-.5-59.4-8.1-117.1 24.9z"/><path d="m284 153.9 7.9 13.9c52.8-30.2 106.4-23.1 106.9-23l2.3-15.8c-2.4-.4-59.4-8-117.1 24.9z"/></g></g></svg>